<svg width="24" height="23" viewBox="0 0 24 23" fill="none" xmlns="http://www.w3.org/2000/svg">
<g filter="url(#filter0_d_1_25)">
<path d="M12 8C12.55 8 13 7.55 13 7V5H15C15.55 5 16 4.55 16 4C16 3.45 15.55 3 15 3H13V1C13 0.45 12.55 0 12 0C11.45 0 11 0.45 11 1V3H9C8.45 3 8 3.45 8 4C8 4.55 8.45 5 9 5H11V7C11 7.55 11.45 8 12 8ZM7 17C5.9 17 5.01 17.9 5.01 19C5.01 20.1 5.9 21 7 21C8.1 21 9 20.1 9 19C9 17.9 8.1 17 7 17ZM17 17C15.9 17 15.01 17.9 15.01 19C15.01 20.1 15.9 21 17 21C18.1 21 19 20.1 19 19C19 17.9 18.1 17 17 17ZM8.1 12H15.55C16.3 12 16.96 11.59 17.3 10.97L20.54 4.83C20.79 4.35 20.62 3.75 20.14 3.49C19.65 3.22 19.04 3.41 18.78 3.9L15.55 10H8.53L4.27 1H2C1.45 1 1 1.45 1 2C1 2.55 1.45 3 2 3H3L6.6 10.59L5.25 13.03C4.52 14.37 5.48 16 7 16H18C18.55 16 19 15.55 19 15C19 14.45 18.55 14 18 14H7L8.1 12Z" fill="white"/>
</g>
<defs>
<filter id="filter0_d_1_25" x="-3" y="0" width="27.6547" height="29" filterUnits="userSpaceOnUse" color-interpolation-filters="sRGB">
<feFlood flood-opacity="0" result="BackgroundImageFix"/>
<feColorMatrix in="SourceAlpha" type="matrix" values="0 0 0 0 0 0 0 0 0 0 0 0 0 0 0 0 0 0 127 0" result="hardAlpha"/>
<feOffset dy="4"/>
<feGaussianBlur stdDeviation="2"/>
<feComposite in2="hardAlpha" operator="out"/>
<feColorMatrix type="matrix" values="0 0 0 0 0 0 0 0 0 0 0 0 0 0 0 0 0 0 0.25 0"/>
<feBlend mode="normal" in2="BackgroundImageFix" result="effect1_dropShadow_1_25"/>
<feBlend mode="normal" in="SourceGraphic" in2="effect1_dropShadow_1_25" result="shape"/>
</filter>
</defs>
</svg>
